<svg id="图层_1" data-name="图层 1" xmlns="http://www.w3.org/2000/svg" xmlns:xlink="http://www.w3.org/1999/xlink" viewBox="0 0 476.11 348.34"><defs><style>.cls-1{fill:url(#未命名的渐变_20);}.cls-2{fill:#6cb1e6;}.cls-3{fill:#436d8e;}.cls-4{fill:#5e9ac8;}</style><linearGradient id="未命名的渐变_20" y1="65.69" x2="476.11" y2="65.69" gradientUnits="userSpaceOnUse"><stop offset="0" stop-color="#5e9ac8"/><stop offset="1" stop-color="#436d8e"/></linearGradient></defs><path class="cls-1" d="M69.75,0H406.36a69.75,69.75,0,0,1,69.75,69.75v61.63a0,0,0,0,1,0,0H0a0,0,0,0,1,0,0V69.75A69.75,69.75,0,0,1,69.75,0Z"/><rect class="cls-2" x="32.56" y="152.87" width="91.2" height="91.2" rx="24.75"/><rect class="cls-2" x="34.13" y="254.12" width="91.2" height="91.2" rx="24.75"/><rect class="cls-3" x="356.84" y="155.89" width="85.14" height="85.14" rx="24.75"/><rect class="cls-3" x="358.4" y="257.14" width="85.14" height="85.14" rx="24.75"/><rect class="cls-4" x="253.39" y="257.14" width="91.2" height="91.2" rx="24.75"/><rect class="cls-2" x="253.39" y="152.87" width="91.2" height="91.2" rx="24.75"/><rect class="cls-4" x="143.76" y="152.87" width="91.2" height="91.2" rx="24.75"/><rect class="cls-2" x="143.76" y="257.14" width="91.2" height="91.2" rx="24.75"/></svg>