<svg id="图层_1" data-name="图层 1" xmlns="http://www.w3.org/2000/svg" xmlns:xlink="http://www.w3.org/1999/xlink" viewBox="0 0 500 500"><defs><style>.cls-1{fill:#fff;}.cls-2{fill:#6ce6cb;}.cls-3{fill:url(#未命名的渐变_106);}.cls-4{fill:url(#未命名的渐变_408);}.cls-5{fill:#6cb1e6;}</style><linearGradient id="未命名的渐变_106" x1="311.7" y1="394.56" x2="311.7" y2="168.09" gradientTransform="matrix(0.89, 0.11, 0.11, 0.89, 28.52, -29.89)" gradientUnits="userSpaceOnUse"><stop offset="0" stop-color="#004f6a"/><stop offset="0.63" stop-color="#436d8e"/><stop offset="0.66" stop-color="#38698b"/><stop offset="0.82" stop-color="#00547f"/></linearGradient><linearGradient id="未命名的渐变_408" x1="130.91" y1="109.67" x2="426.35" y2="109.67" gradientTransform="translate(557.26 219.35) rotate(180)" gradientUnits="userSpaceOnUse"><stop offset="0.4" stop-color="#4d7db1"/><stop offset="0.54" stop-color="#5c96c5"/></linearGradient></defs><rect class="cls-1" width="500" height="500" rx="44.5"/><polygon class="cls-2" points="166.28 39.73 130.69 75.32 166.27 39.73 166.28 39.73"/><polygon class="cls-3" points="249.25 215.87 298.26 166.87 424.3 167.36 249.25 342.4 249.25 215.87"/><path class="cls-4" d="M130.91,52.5H426.35a0,0,0,0,1,0,0V166.85a0,0,0,0,1,0,0H245.25A114.35,114.35,0,0,1,130.91,52.5v0a0,0,0,0,1,0,0Z" transform="translate(555.88 219.35) rotate(-180)"/><path class="cls-5" d="M23.66,199.28h383a0,0,0,0,1,0,0v0A112.62,112.62,0,0,1,294,311.9H-32.19a0,0,0,0,1,0,0V255.13a55.85,55.85,0,0,1,55.85-55.85Z" transform="translate(-69.75 442.81) rotate(-90)"/></svg>