<svg id="图层_1" data-name="图层 1" xmlns="http://www.w3.org/2000/svg" xmlns:xlink="http://www.w3.org/1999/xlink" viewBox="0 0 500 360"><defs><style>.cls-1{fill:#5e9ac8;}.cls-2{fill:url(#未命名的渐变_16);}</style><linearGradient id="未命名的渐变_16" x1="51.69" y1="180" x2="262.93" y2="180" gradientUnits="userSpaceOnUse"><stop offset="0" stop-color="#5e9ac8"/><stop offset="1" stop-color="#436d8e"/></linearGradient></defs><path class="cls-1" d="M451,142.48v215l-98.77-39.65a207.9,207.9,0,0,0,0-135.74L451,142.48M500,70,284,156.73a157.32,157.32,0,0,1,0,186.54L500,430V70Z" transform="translate(0 -70)"/><circle class="cls-2" cx="157.31" cy="180" r="105.62"/><path class="cls-1" d="M157.31,115.69a134.32,134.32,0,1,1-95,39.34,133.42,133.42,0,0,1,95-39.34m0-23A157.31,157.31,0,1,0,314.62,250,157.31,157.31,0,0,0,157.31,92.69Z" transform="translate(0 -70)"/></svg>