<svg id="图层_1" data-name="图层 1" xmlns="http://www.w3.org/2000/svg" xmlns:xlink="http://www.w3.org/1999/xlink" viewBox="0 0 498.67 338.87"><defs><style>.cls-1{fill:url(#未命名的渐变_17);}.cls-2{fill:url(#未命名的渐变_17-2);}</style><linearGradient id="未命名的渐变_17" x1="0.66" y1="284.7" x2="348.35" y2="284.7" gradientUnits="userSpaceOnUse"><stop offset="0" stop-color="#5e9ac8"/><stop offset="1" stop-color="#436d8e"/></linearGradient><linearGradient id="未命名的渐变_17-2" x1="56.68" y1="218.1" x2="499.34" y2="218.1" xlink:href="#未命名的渐变_17"/></defs><path class="cls-1" d="M348.35,374a40.71,40.71,0,0,1-38.62,27.81H.66V207.91a40.75,40.75,0,0,1,35-40.33V333.27A40.74,40.74,0,0,0,76.4,374Z" transform="translate(-0.66 -62.96)"/><path class="cls-2" d="M458.59,63H97.43A40.74,40.74,0,0,0,56.68,103.7V319.17a40.74,40.74,0,0,0,40.75,40.74s373.72-11.75,401.91,13.32V103.7A40.74,40.74,0,0,0,458.59,63Zm-348.91,83.4a17.8,17.8,0,0,1,12.62-5.24H404a17.84,17.84,0,1,1,0,35.67H122.3a17.83,17.83,0,0,1-12.62-30.43ZM266.92,273.8A17.8,17.8,0,0,1,254.3,279h-132a17.83,17.83,0,1,1,0-35.66h132a17.84,17.84,0,0,1,12.62,30.44Zm167.67-51.11A17.8,17.8,0,0,1,422,227.91H122.3a17.84,17.84,0,1,1,0-35.67H422a17.84,17.84,0,0,1,12.62,30.45Z" transform="translate(-0.66 -62.96)"/></svg>